<?xml version="1.0" encoding="utf-8"?>
<!-- Generator: Adobe Illustrator 21.0.0, SVG Export Plug-In . SVG Version: 6.00 Build 0)  -->
<svg version="1.1" id="Layer_1" xmlns="http://www.w3.org/2000/svg" xmlns:xlink="http://www.w3.org/1999/xlink" x="0px" y="0px"
	 viewBox="0 0 720 720" style="enable-background:new 0 0 720 720;" xml:space="preserve">
<style type="text/css">
	.st0{fill:#F8D520;}
	.st1{fill:#802218;}
	.st2{fill:#EE3424;}
	.st3{fill:#EC5661;}
	.st4{fill:#6F0F10;}
	.st5{fill:#FFFFFF;}
	.st6{fill:#F8D521;}
	.st7{fill:#DF9626;}
	.st8{fill:#030303;}
</style>
<path class="st0" d="M55.3,452.6c-3.3-5.2-5-11.2-7.2-16.8c-4.7-11.9-9.6-23.7-13.8-35.7c-5.6-15.7-10.2-31.7-13-48.2
	c-0.2-1.3,0.4-1.6,1.3-2.1c9.9-6,20.4-11,30.9-16c30.3-14.5,61.9-25.3,93.7-35.8c23.1-7.6,46.5-14.6,70.3-19.8
	c8-1.7,16.1-3.2,24.7-3.9c-0.5,1.3-0.9,2.3-1.3,3.4c-6.1,15.6-12.2,31.1-18.2,46.7c-0.5,1.2-0.9,2.2-2.4,2.5s-1.3,1.5-1.2,2.5
	c0.1,1.1,0.3,2.3,0.7,3.4c0.7,1.8-0.2,2.5-1.7,3.2c-1.9,0.8-4,1.3-5.5,2.8c-1.7,1.8-1.3,3.6,1,4.5c0.1,0.1,0.3,0,0.4,0.1
	c3.6,1.1,3.7,1.1,2.7,4.8c-4.2,15.9-8.4,31.8-12.6,47.7c-0.1,0.6-0.3,1.1-0.5,1.7c-1.1-0.2-0.9-1.2-0.9-1.9c0.2-8.6-0.3-17.3,0.3-26
	c0.9-13.2,2.3-26.3,3.4-39.4c0.1-1.6-0.4-1.5-1.5-1c-11.4,4.2-22.1,9.7-32.3,16.1s-20.1,13.3-29.6,20.8
	c-8.8,6.9-17.4,14.1-25.7,21.6c-7.3,6.5-14.4,13.4-21.2,20.4c-12.9,13.5-26,26.8-37.5,41.6C57.7,450.8,57.1,452.4,55.3,452.6z"/>
<path class="st1" d="M204.5,484.1c0.9-1.6,1.7-3.1,2.9-5.3c0.5,4.8,1,9,1.6,13.9c2.2-5.2,4.1-9.8,6-14.4c0.1,0,0.3,0,0.4,0
	c0.4,3.3,0.9,6.7,1.4,10.6c2.3-4.5,4.3-8.5,6.5-12.9c0.7,4.3,0.4,8.2,0.7,12.6c2.8-3.8,5.2-7.2,7.7-10.6c-1.9,5.9-4.4,11.6-6.6,17.3
	c-0.2,0.5-0.4,0.9-0.7,1.7c2.1-0.6,3.9-1.2,5.6-1.8c9.4-3.2,18.8-6.5,28.2-9.7c0.6-0.2,1.4-1,2-0.2c0.4,0.5-0.2,1.2-0.5,1.8
	c-6.3,14.5-14.1,28.2-22.6,41.6c0.4-2,0.8-3.9,1.2-5.8c0.4-2,0.9-3.9,1.2-5.9c0.2-1.1,0.9-2.4-0.3-3.2c-1.1-0.8-2.2,0-3.3,0.5
	c-12.5,5.8-25.1,11.7-37.6,17.5c-0.5,0.2-1,0.6-1.9,0.4C199.1,516.2,201.8,500.1,204.5,484.1z"/>
<path class="st2" d="M336.3,367.1c-0.1,6.9-1.7,13.2-6.4,18.3c-6.6,7.3-15.8,7.2-23.9,3.5c-0.5-0.2-0.9-0.5-1.1-1
	c-3.7-8.3-7.2-16.8-7.7-26c-0.4-7.4,3.5-13.2,9.6-17.1c5.9-3.7,12.1-3.2,18,0.4C333.1,350.2,336.1,358,336.3,367.1z M485.8,418.7
	c1.3-11.6,6.8-20.9,15.8-28.2c1.6-1.3,3.4-2.2,5.5-2.2s3.5,1.1,3.6,3.2c0.3,3.8,0.6,7.6,0.7,11.5c0.1,3.5-1.3,6.6-2.9,9.6
	c-3.9,7.1-9.9,12.4-16.1,17.4c-0.8,0.6-1.5,0.4-2.2,0.1c-2.7-1.3-3.6-3.8-4.1-6.5C485.8,421.9,485.7,420.3,485.8,418.7z"/>
<path class="st3" d="M444.9,393.6c-2.1,3.7-11.2,19.2-20.6,30.9c0,0-3.3,4.1-10.8,10.7c-1.9,1.7-4.7,3.8-8.7,5.2
	c-5,1.8-8.6,0.6-11.5-3.9c-2.6-4.1-4.2-8.7-5.1-13.5c-1.6-8.1-2.8-16.3-2.8-24.6c-0.2-2-0.3-4.1,0-6.1c0.3-4.8,0.6-9.7,0.8-14.5
	c2.1-0.7,4.9-1.5,8.2-2.3c2.8-0.6,7.9-1.6,13.8-1.5c10.5,0.2,18.4,4.1,20,4.9C437.3,383.5,442.5,390,444.9,393.6z"/>
<path class="st4" d="M444.9,393.6c-15.6-20.5-35.6-23.2-58.6-15.8c-0.1-2.6,0.5-5.2,0.9-7.9c0.2-1.1,0.9-1,1.6-0.9
	c3.5,0.4,7,0.8,10.5,1.3c3.4,0.5,6.7-0.5,10-0.7c3.9-0.3,7.8-1,11.8-1.4c2.5-0.2,4.5,1.3,6.3,3c6.1,5.8,12.9,10.3,21.1,12.5
	c0.9,0.2,1.1,0.6,0.7,1.4C447.8,387.8,446.4,390.6,444.9,393.6z"/>
<path class="st5" d="M354.6,315.9c0-4.2,3.9-8.6,7.7-8.4c4.5,0.2,7.1,2,7.2,7c0.1,4.6-3.8,9-7.9,9
	C357.4,323.4,354.6,320.5,354.6,315.9z"/>
<path class="st5" d="M480.1,352.5c-4.3,0.1-7.4-2.8-7.4-6.7c0-3.8,3.7-7.1,7.9-7c3.9,0,7,3,7,6.8C487.5,349.1,484,352.4,480.1,352.5
	z"/>
<path class="st6" d="M629.2,242.1c-6-0.1-12-0.6-18-0.3c-11.4,0.5-22.8,1.4-34.1,2.1c-4.4,0.3-8.8,0.4-13.2,1.1
	c-7.9,1.3-15.7,3-23.6,4.5c-11.8,2.2-23.5,4.4-34.6,9.1c-2.7,1.1-5.5,2.2-8.3,3.9c2.5,2.1,4.9,4.1,7.3,6.1c0.6,0.5,1.3,0.9,0.7,1.8
	c-0.5,0.8-1.4,0.8-2.1,0.4c-0.5-0.3-1-0.8-1.5-1.2c-3.5-3-6.8-6.2-10.7-8.8c-16.1-11.1-34-17.8-53-22c-7.6-1.7-15.5-1.9-23.2-2.8
	c-13.9-1.6-27.8-1.9-41.4,1.9c-1.1,0.3-1.7,0.7-2,1.9c-0.7,2.8-1.6,5.6-3.1,8c-0.4,0.6-1,1.6-1.8,1.2c-0.9-0.4-0.8-1.5-0.6-2.3
	c0.1-0.5,0.3-1,0.5-1.4c1.1-3.3,2.3-6.5,3.3-9.8c3.8-13,6.4-26.3,8.5-39.7c3.2-20.7,6.6-41.3,10-61.9c0.2-1.2-0.2-1.5-1.3-1.5
	c-1.7,0-3.3,0.3-4.9,0.6c-6.3,1.5-11.6,5.1-16.8,8.6c-9.5,6.4-16.8,15.1-24.7,23.3c-0.4,0.4-0.6,0.8-0.7,1.3c-0.6,2.7-1.4,5.3-1.7,8
	c-0.6,5.4-1,10.9-1.1,16.4c-0.1,5.1-0.3,10.2-0.5,15.3c-0.5,10.4-1.1,20.9-0.3,31.3c0.8,10.5,1.2,21,1.9,31.5
	c0.1,1.5-0.6,1.1-1.4,0.9c-1.4,0.6-2-0.2-2.4-1.3c-0.5-1.6-1-3.2-1.6-5.1c-2.9,4.1-5.4,8-6.8,12.4c-3.5,11.2-7.4,22.3-10.4,33.7
	c-2.8,10.3-7.5,19.8-12.5,29.1c-1.5,2.8-2.5,5.8-3.7,9.4c1.7-1.9,3.1-3.3,4.8-4.3c11.5-7,26.9-1.9,32.3,11.1
	c4.1,9.7,3.7,19.4-1.3,28.6c-4.1,7.5-10.6,11.3-19.3,11.5c-3,0-5.8-0.8-8.8-1.4c0.4,0.8,0.6,1.3,0.8,1.8c5.8,11.9,12.8,23.1,20,34.1
	c0.7,1,1.4,2.1,0,3c-1.3,0.9-1.9-0.4-2.5-1.3c-8.1-12.5-15.9-25.3-22.2-38.9c-5.4-11.8-10-23.8-8.9-37.2c0.1-0.9-0.3-1.5-0.8-2.1
	c-2.6-3.3-5.5-6.2-8.9-8.5c-6.5-4.4-13-8.8-19.5-13.3c-3.1-2.1-5.6-4.7-5.5-8.9c0-1.4-0.3-2.9-0.6-4.3c-0.2-1.3-0.9-1.9-2-0.7
	c-5.2,5.6-12.6,8.5-17.5,14.4c-0.7,0.8-1.5,1.2-2.4,0.4c-1-0.9-0.4-1.7,0.3-2.4c2.5-2.6,4.9-5.4,8.2-7.5c-2.4-1.2-4.5-2.3-6.7-3.1
	c-1.6-0.6-2.2-0.5-2,1.5c0.3,2.6-0.1,2.9-2.6,2.9c-1.1,0-2.3,0.1-3.5,0.1c-3.8,0.1-3.8,0.2-2.1,3.5c0.5,1,0.9,1.9,0.1,2.8
	c-0.7,0.9-1.7,0.6-2.6,0.5c-1.6-0.2-3.7-1.6-4.7-0.3c-0.9,1.3,0.4,3.4,0.8,5.1c0,0.1,0.1,0.1,0.1,0.2c1,1.6,0.3,2.5-1.3,3.1
	c-2.3,0.9-4.5,1.9-7,3c2.2,0.9,4.2,1.4,6.3,1.5c1.8,0.1,2.5,0.8,2.6,2.6c0.9,9.9,2.6,19.6,4.8,29.2c1.8,7.7,3.4,15.4,6,22.8
	c2.1,3.4,4.8,6.3,7.3,9.4c4.2,5.1,7.6,10.7,11.4,16.1c8.5,12,16,24.5,22.2,37.8c1.5,3.3,2.8,6.6,3.6,10.2c0.2,0.8,0.4,1.6-0.1,2.3
	c-1.4,1.9-2.4,4.2-4.3,5.7c-2.5,2-4.6,4.3-7,6.4c-2.1,1.8-4.2,3.6-5.8,5.8c-0.1,0.2-0.3,0.5-0.5,0.7c-9,19.3-19.8,37.6-31.8,55.1
	c-7.4,10.8-13.4,22.2-16.1,35.1c-2.9,14.4,0.5,27,11,37.5c0.7-1.1-0.1-1.9-0.6-2.8c-2.2-4.1-3.9-8.3-3.6-13.2
	c0.3-4.2,3.3-8.3,7.2-9.3c2.7-0.7,5.4-1.1,8.2-0.6c6.4,1,12.8,1.9,19.2,3.4c14.7,3.5,29.1,8.4,44.4,9.7c8.5,0.7,16.8,3.1,25.4,2.3
	c6.3-0.6,12.7-0.5,18.9-1.7c8.6-1.6,17.3-2.8,25.8-4.6c7.6-1.7,15.4-2.5,23.2-2.8c7.4-0.3,14.7,0.9,22,1.4
	c5.2,0.4,10.4,0.6,15.5,1.4c8.1,1.3,16.1,3.3,23.9,6.1c7.4,2.6,14.6,5.5,20.8,10.5c3.8,3.1,6.9,6.6,7.8,11.6
	c0.1,0.7,0.1,1.5,1.1,1.7c1.1-1.8,2.3-3.5,3.4-5.3c13.6-22.1,10-45.4-6-64.9c-3.6-4.4-7.3-8.8-11.2-12.9c-5.5-5.8-7.8-12.7-7.7-20.5
	c0.2-14,3.8-27,10.6-39.3c0.5-1,1.2-1.6,2.3-1.7c1,0.4,1.8-0.1,2.6-0.6c2.3-1.4,4.8-2.3,7.4-3c4.9-1.4,9.8-2.9,14.8-4.2
	c6-1.6,11.9-3.8,18.3-4c3.1-0.1,6.3-0.2,9.4-1.3c0.2-0.1,0.4-0.1,0.6-0.3c16.3-10.5,31.2-22.5,43.8-37.4c1.2-1.4,2.5-2,4.3-1.7
	c1.5,0.3,3,0.6,4.7,0.4c-0.9-1.9-1.8-3.7-2.7-5.5c-1-2.1-0.5-3,1.8-3.4c0.4-0.1,0.9-0.1,1.3-0.2c1-0.2,1.6-0.4,0.6-1.6
	c-2.3-2.8-2.2-3.6,0.4-6.2c2.2-2.3,2.2-2.3,0-4.7c-2.1-2.2-2.2-3.5-0.2-6c0.1-0.2,0.3-0.4,0.4-0.5c1-1,0.6-1.5-0.6-1.8
	c-2.3-0.7-4.5-0.6-6.9-0.5c0.2,2.1,1.4,3.8,1.1,5.8c-0.1,0.8-0.4,1.5-1.2,1.5s-1.3-0.5-1.4-1.3c-0.8-4.4-2.7-8.5-2.2-13.1
	c0-0.2-0.2-0.4-0.3-0.8c-2.8,3.5-6.5,4.1-10.5,3.8c-15.1-1.3-30,0-44.5,4.5c-0.8,0.3-1.5,0.4-1.7,1.4c-1.5,6.5-5.2,11.8-9.8,16.3
	c-15.4,15.2-33.2,26.6-53.3,34.6c-0.7,0.3-1.3,0.8-2.4,0.4c14.3-7.3,27.4-16.1,40.7-25.2c-4-2.3-5.4-5.8-5.9-9.7
	c-0.6-3.9,0-7.8,1.1-11.6c2.4-8.6,7.5-15.5,14-21.5c3.5-3.3,7-6,12.5-3.8c0-2.6-0.1-5,0-7.3c0.6-11.4,3.5-22.3,6.4-33.3
	c5.3-20.1,6.4-40.2-3.7-59.4c-0.3-0.7-0.7-1.4,0-2c1-0.7,1.8-0.2,2.4,0.6c0.8,0.6,1.7,0.4,2.5,0.3c2.9-0.4,5.7-0.8,8.6-1.1
	c7.5-0.9,14.8-2.3,22.3-2.9c4.3-0.4,8.5,0.1,12.8-0.4c7.4-0.8,14.7,0.1,22,0.4c3.4,0.1,6.7,0.7,10.1-0.1c7-4.4,13.4-9.5,19.5-15
	c6.6-5.9,12-12.7,15.9-20.6c0.3-0.6,0.6-1.3,0.9-2C630.5,242.5,630.2,242.1,629.2,242.1z M425.3,348c3.4,0.1,6.1,1.6,6.1,3.6
	c0,1.5-2,3.1-4.1,3.1c-2.5,0-4.4-2.1-4.4-4.9C423,348.3,424,348,425.3,348z M342.8,316.1c2.7-5.8,7-9.7,13.6-11.3
	c6.9-1.8,12.5-0.4,17.2,4.9c4.8,5.5,5.5,11.7,3,18.4c-3.1,8.2-10.2,13.2-18.5,13.2C345.1,341.2,337.2,328.1,342.8,316.1z
	 M396.9,477.1c-10.1,1.3-19.2-1.5-26.9-8.6c-6.5-6-10.9-13.4-14.7-21.4c2.5,1.3,5,2.7,7.6,3.7c8.2,3.2,16.8,5,25.4,6.4
	c9.3,1.5,18.7,2.2,28,3.1c5,0.5,10.1,1.1,15.1,1.7C420.8,469.3,409.7,475.5,396.9,477.1z M460,385.3c-1.8-0.1-3.6-0.1-5.4-0.5
	c-1.7-0.4-2.4,0.2-3.1,1.7c-5.6,12.3-13,23.4-20.8,34.3c-4.3,6-9.4,11.3-15,16.1c-3.2,2.7-6.7,5-10.8,6.2c-5.7,1.8-10,0.5-13.5-4.3
	c-3.7-5.1-5.2-11-6.4-17.1c-1.8-8.8-2.6-17.7-2.6-26.7c0-8.7-0.1-17.3,2-25.8c0.3-1.3-0.6-1.3-1.3-1.5c-2.8-1.1-5.3-2.6-7.2-5
	c-0.6-0.7-1.3-1.5-0.3-2.4c0.9-0.9,1.9-0.3,2.5,0.4c3.7,4.4,8.8,5.2,14.1,6.2c8.3,1.5,16.4-0.5,24.5-1.2c1.8-0.1,3.5-0.5,5.4-0.4
	c3.5,0.2,5.8,2.4,8.1,4.6c5.6,5.3,12,9.2,19.4,11.3c3.4,1,7,0.9,10.5,1.2c1.2,0.1,3,0.1,3,1.4C463.1,385.1,461.4,385.4,460,385.3z
	 M480.6,369.8c-8.6,0.2-16.3-8.1-16.3-17.4c0-9.4,7.3-16.9,16.6-16.9c8.9-0.1,16.8,8.1,16.9,17.4
	C497.7,360.9,492.6,369.5,480.6,369.8z"/>
<path class="st7" d="M55.3,452.6c3.7-4.4,7.5-8.7,11.1-13.2c3-3.8,6.2-7.4,9.4-11c5.1-5.5,10.5-10.7,15.6-16.2
	c4.2-4.6,8.6-9,13-13.3c8.8-8.7,18.1-16.8,27.7-24.8c11.4-9.5,23.2-18.2,35.5-26.3c11.9-7.8,24.4-14.5,37.8-19.4
	c0.4-0.2,0.9-0.2,1.6-0.4c-0.1,2.4-0.2,4.6-0.5,6.8c-0.7,6.2-1,12.5-1.8,18.6c-1.7,13.9-1.7,27.9-1.7,41.8c0,0.8-0.3,1.6,0.4,2.3
	c-4.3,12.4-6.3,25.4-8.2,38.3c-0.1,0.5-0.1,1-0.1,1.5c-0.1,0.8-0.7,1.9-0.1,2.2c0.8,0.5,1.9,0.1,2.8-0.3c8.4-3.9,16.9-7.8,25.1-12.1
	c4.9-2.5,9.8-5,14.6-7.5c1.2-0.6,1.6-0.3,2,0.8c2.4,5.9,4.8,11.7,7.3,17.5c0.3,0.8,0.3,1.5,0,2.3c-4.8,12-9.5,24-14.3,36
	c-0.3,0.7-0.6,1.3-1,1.9c-1.7,3.4-3.9,6.4-6.1,9.4c-0.4,0.5-0.9,1.2-1.5,1c-0.7-0.2-0.7-1-0.7-1.7c-0.1-3,0.2-6-0.5-8.8
	c-1.5,2.9-3.1,6.1-4.7,9.4c-0.3,0.6-0.5,1.4-1.3,1.3c-0.9-0.1-0.9-1-1-1.7c-0.3-2.3-0.6-4.6-1-7.2c-1.2,2.8-2.3,5.3-3.3,7.9
	c-0.3,0.9-0.7,1.8-1.1,2.6c-0.4,0.8-0.5,2.2-1.6,2.1c-1.2-0.1-0.8-1.5-0.9-2.3c-0.4-3.2-0.8-6.4-1-9.6c-1,1.2-0.8,3.2-2.7,3.7
	c0.9-5.8,1.9-11.5,2.8-17.3c0.1-0.6,0.3-1.3,0.3-1.9c0-1.6-0.9-2.3-2.4-1.6c-1.8,0.9-3.5,2-5.3,2.9c-17.7,10-35.4,19.9-53.2,29.9
	c-0.6,0.3-1.1,0.6-1.9,1c1.2-7,2.4-13.8,3.6-20.6c4.8-27.7,9.7-55.4,14.5-83.1c0.2-1,0.7-2.1-0.3-2.9c-1.1-0.9-2-0.1-3,0.4
	c-24.8,12.5-47.7,27.8-69.3,45.1c-10.1,8.1-19.8,16.5-29,26C58.8,459,56.8,455.9,55.3,452.6z M515.6,284.8
	c9.9-1.4,19.8-2.9,29.8-4.3c2.6-0.4,5.2-0.5,7.8-0.5c4.5,0,9.1-0.3,13.6-0.4c8-0.3,16,0.9,24,0.9c1.1,0,2.1,0.3,3.2,0.4
	c-3.5,2.6-7.1,4.9-11,6.9c-2.9,1.5-6.3,1.2-9.5,1.7c-12.3,2.1-24.6,3-37,3.3c-5.5,0.1-11-0.5-16.4-0.7c-0.9,0-1.2-0.5-1.6-1.2
	C517.5,288.9,516.5,286.9,515.6,284.8z M338.2,173.8c0.3,7.4-0.3,14.8-0.8,22.2c0,0.2,0,0.4,0,0.6c-0.2,6.7-0.2,13.4-0.5,20.1
	c-0.2,3.4-0.5,6.9-0.3,10.4c0.5,8.8,1.1,17.6,1.7,26.4c0.2,2.4,0,4.7,0.3,7.1c0.4,3.4,0.1,6.9,0.7,10.6c-1.3-0.6-1.9-1.3-2.4-2.2
	c0.7-0.8,0.5-1.7,0.2-2.6c-6.1-17.2-6.3-34.9-5.1-52.8c0.9-13.1,3-25.9,5.8-38.7C337.9,174.6,338.1,174.2,338.2,173.8z M224.3,618.7
	c-0.9-1.9-1.9-3.8-2.8-5.8c-2.2-5-3.3-10.1-0.4-15.2c1.7-3,4.3-4.7,7.9-5.3c5.4-0.9,10.4,0.3,15.6,1.2c13.9,2.3,27.3,6.8,41,9.8
	c4.8,1,9.8,1.4,14.7,2.1c6.1,0.8,12.2,1.8,18.3,2.4c2.6,0.3,5.4,0.1,7.9-0.3c3-0.5,6-0.4,9-0.6c7.3-0.5,14.4-2.3,21.7-3.4
	c8.9-1.3,17.5-3.7,26.5-4.5c7.2-0.6,14.3-0.7,21.5,0.3c4.4,0.6,8.9,0.7,13.3,1c9.1,0.6,18.1,2,26.9,4.6c7.5,2.2,15,4.7,21.9,8.4
	c5.2,2.8,10.1,6.2,13.4,11.3c1.5,2.3,1.7,4.8,2.5,7.2c-2.7,4.2-6.3,7.7-9.4,11.8c0.7,0.4,1.7,0.5,1.8,1.9c2.2-2.6,4.3-5,6.2-7.4
	c0.7-0.9,1.3-1.2,2.5-0.7c9.7,3.7,18.6,8.8,27.5,14.1c0.2,0.1,0.3,0.3,0.6,0.6c-1.1,0.1-1.8-0.6-2.6-1c-4.8-2-9.5-4.1-14.3-6.2
	c-0.3-0.1-0.5-0.2-0.8-0.3c-0.9-0.2-1.7,0.1-2.1,0.8c-0.5,0.8,0.3,1.5,1,1.8c2,0.9,4.1,1.8,6.2,2.5c6.1,2.2,11.5,5.8,16.8,9.3
	c1,0.7,1,0.7,1.7,2.2c-2.2,0.1-4.2,0-6-1.6c-3-2.5-6.7-3.6-10.1-5.4c-2-1-4-1.9-6.1-2.9c-0.9-0.4-1.8-0.9-2.4,0.3
	c-0.5,1.2,0.2,1.9,1.3,2.3c3.6,1.5,7.2,3,10.7,4.7c2.1,1,4.3,2,6.1,3.9c-3.2,1.2-6.3,0.6-9.3,0.2c-23.6-3.5-47.2-7.1-70.8-10.6
	c-1.6-0.3-3.3-0.4-4.9-0.8c-2.2-0.5-3.8-1.9-4.7-4.3c2-0.3,3.9,0,5.8,0.1c4.5,0.3,9.1,0.9,13.6,0.3c0.5-0.1,1.1,0,1.5-0.2
	c0.7-0.4,1.4-1,1.2-1.9c-0.2-0.8-0.9-0.7-1.6-0.7c-5.3,0.3-10.5-0.2-15.8-0.4c-8.4-0.3-16.6-2.2-24.9-3.3c-14-1.8-27.3-6.8-41.2-9.9
	c2.3-0.8,8-1,11.5-0.6c5,0.6,10,1.1,15.1,1.6c1.3,0.1,3,0.2,3.1-1c0.1-1.6-1.7-1.5-3-1.6c-6.3-0.6-12.6-1.4-19-1.9
	c-3.1-0.2-6.2,0.2-9.3,0.2c-11.1,0.3-22.1,2.3-33.1,3.6c-13.6,1.7-27.2,3.8-40.8,5.2c-4.7,0.5-9.5-0.6-14.2-0.8
	c-6.5-0.2-12.7-1.3-18.8-3.6c-0.5-0.2-1-0.3-1.5-0.2c-0.7,0.1-1.5,0.2-1.6,1.1c-0.1,0.9,0.6,1.2,1.3,1.5c5.7,1.7,11.2,3.7,17.2,3.9
	c1.9,0,3.8,0.4,6.1,0.6c-1.8,1.8-3.9,2.6-5.9,3.3c-13.5,4.5-26.8,9.4-40.5,13.3c-10.7,3-21.7,5.3-32.8,6.6c-0.4,0-0.7,0-1.7,0
	c2.4-2,4.1-3.9,6.4-5.2c6-3.7,11.9-7.7,18.8-9.5c0.8-0.2,1.8-0.8,1.5-1.8c-0.3-1.1-1.3-1.2-2.3-0.8c-9.9,3.2-19,8-26.5,15.4
	c-1,1-2,1.1-2.8,0.5c-1.2-0.8-0.1-1.7,0.4-2.4c1-1.6,2.4-2.9,3.9-4c5.3-4.1,10.7-7.9,16.7-10.8c0.6-0.3,1.9-0.6,1.2-1.6
	c-0.5-0.8-1.4-1.3-2.6-0.7c-6.3,3.2-12,7.1-17.6,11.4c-1.6,1.3-3,2.9-4.4,5c-0.3-1.5,0.2-2.2,0.6-3c1.2-1.8,2.7-3.4,4.4-4.8
	c6.6-5.4,13.3-10.6,20.8-14.8c5.1-2.8,9.9-5.8,14.9-8.9c1.2-0.7,2-0.7,3.1,0.1c1.4,1.1,3.1,1.9,4.5,3c1.6,1.3,1.4-0.6,2-1
	c1.2-0.8-0.1-1-0.5-1.3c-2.9-2.1-6-4-8.7-6.4C225.8,620.2,225.1,619.4,224.3,618.7z M234.3,396.6c2.9,2.7,5.3,5.9,7.6,9
	c8.5,11.2,16.4,22.7,23.6,34.8c4.9,8.2,9.5,16.7,12.7,25.7c0.6,1.6,1,3.3,1.4,5c0.1,0.4,0.1,1-0.1,1.2c-1.9,2.4-3.3,5.2-5.9,7.1
	c-2.9,2.3-5.5,4.9-8.1,7.4c-1.3,1.2-2.5,2.3-4,3.3c2.3-5.5,4.4-11.1,6.1-16.9c1.2,0.5,1.6,1.5,2.3,2.3c0.7,0.7,1.4,1.2,2.2,0.5
	c0.9-0.7,0.5-1.5-0.1-2.3c-2.6-3.7-5.3-7.4-7.9-11.1c-9.7-13.8-16.7-29-22.7-44.8C239,411,236.4,403.9,234.3,396.6z M474.7,487.3
	c11-5.9,23.4-7.6,35.1-11.4c3.1-1,6.4-0.8,9.6-1.2c2.5-0.4,5.2-0.4,7.7-0.5c-10.3,6.9-21.3,12.7-32.6,17.7c-7.2,3.2-14.5,6-22,8.3
	c-0.7,0.2-1.3,0.6-2.1,0.3c1-3.8,3-7,4.9-10.3C475.9,489.1,476.3,488,474.7,487.3z M385.7,459.2c-6.2-1.2-14.9-3.4-25.1-7.5
	c1.6,3.5,8.2,16.3,22.3,21c7.3,2.4,13.6,1.6,17.4,1.1c12.1-1.5,20.7-7.4,24.7-10.5c-3.8-0.2-9.2-0.6-15.7-1.2
	C399.6,461.3,393,460.6,385.7,459.2z"/>
<path class="st8" d="M388.4,457.3c-8.7-1.4-17.2-3.2-25.4-6.4c-2.6-1-5.1-2.4-7.6-3.7c3.7,8,8.2,15.3,14.7,21.4
	c7.7,7.1,16.8,9.8,26.9,8.6c12.8-1.6,24-7.8,34.7-15.1c-5.1-0.6-10.1-1.2-15.1-1.7C407.1,459.5,397.7,458.8,388.4,457.3z
	 M400.4,473.9c-3.8,0.5-10.2,1.2-17.4-1.1c-14.1-4.6-20.7-17.5-22.3-21c10.2,4.1,18.8,6.2,25.1,7.5c7.4,1.4,13.9,2,23.7,2.9
	c6.5,0.6,11.9,1,15.7,1.2C421,466.5,412.5,472.3,400.4,473.9z M358,341.2c8.3,0,15.4-5,18.5-13.2c2.5-6.7,1.8-12.9-3-18.4
	c-4.6-5.3-10.3-6.6-17.2-4.9c-6.5,1.7-10.8,5.5-13.6,11.3C337.2,328.1,345.1,341.2,358,341.2z M362.4,307.5c4.5,0.2,7.1,2,7.2,7
	c0.1,4.6-3.8,9-7.9,9c-4.3,0-7.1-3-7.1-7.6C354.7,311.7,358.5,307.3,362.4,307.5z M423,349.8c0-1.6,1-1.8,2.3-1.8
	c3.4,0.1,6.1,1.6,6.2,3.6c0,1.5-2,3.1-4.1,3.1C424.8,354.7,422.9,352.6,423,349.8z M217,488.6c0,0.1-0.1,0.2-0.1,0.3
	c0-0.1,0-0.2,0-0.3C216.8,488.6,216.9,488.6,217,488.6L217,488.6z M209.1,492.3c0,0.1-0.1,0.2-0.1,0.3c0-0.1,0-0.2,0-0.4
	C209,492.3,209,492.3,209.1,492.3L209.1,492.3z M224.1,488.5c0,0.1-0.1,0.1-0.1,0.2c0-0.1,0-0.2,0-0.2
	C224,488.4,224,488.5,224.1,488.5L224.1,488.5z M460.1,382.4c-3.5-0.3-7.1-0.2-10.5-1.2c-7.5-2.1-13.8-6-19.4-11.3
	c-2.3-2.2-4.6-4.4-8.1-4.6c-1.8-0.1-3.6,0.3-5.4,0.4c-8.2,0.7-16.2,2.7-24.5,1.2c-5.3-1-10.4-1.8-14.1-6.2c-0.6-0.7-1.5-1.2-2.5-0.4
	c-1,0.9-0.3,1.7,0.3,2.4c1.9,2.4,4.4,3.9,7.2,5c0.7,0.3,1.6,0.3,1.3,1.5c-2.1,8.5-2,17.2-2,25.8c0,9,0.8,17.9,2.6,26.7
	c1.2,6,2.7,12,6.4,17.1c3.5,4.9,7.8,6.2,13.5,4.3c4.1-1.3,7.6-3.5,10.8-6.2c5.6-4.8,10.7-10.1,15-16.1c7.8-10.9,15.2-22.1,20.8-34.3
	c0.7-1.5,1.3-2.1,3.1-1.7c1.7,0.4,3.6,0.4,5.4,0.5c1.3,0.1,3.1-0.2,3.1-1.6C463.2,382.5,461.4,382.5,460.1,382.4z M449.2,385
	c-1.4,2.8-2.8,5.7-4.3,8.6c-2.1,3.7-11.2,19.2-20.6,30.9c0,0-3.3,4.1-10.8,10.7c-1.9,1.7-4.7,3.8-8.7,5.2c-5,1.8-8.6,0.6-11.5-3.9
	c-2.6-4.1-4.2-8.7-5.1-13.5c-1.6-8.1-2.8-16.3-2.8-24.7c-0.2-2-0.3-4.1,0-6.1c0.3-4.8,0.6-9.7,0.8-14.5c0.4-0.1,0.5-5.2,0.9-7.9
	c0.2-1.1,0.9-1,1.6-0.9c3.5,0.4,7,0.8,10.5,1.3c3.4,0.5,6.7-0.5,10-0.7c3.9-0.3,7.8-1,11.8-1.4c2.5-0.2,4.5,1.3,6.3,3
	c6.1,5.8,12.9,10.3,21.1,12.5C449.3,383.9,449.5,384.2,449.2,385z M700,255c-4.6-2.3-9.4-4.3-14.3-6c-14.3-4.9-29.1-7.6-44.2-8.8
	c-11.4-0.9-22.8-1.5-34.2-1.1c-9.2,0.3-18.5,1-27.7,1.7c-6,0.5-12,0.3-17.9,1.4c-8.5,1.6-17,3.4-25.5,5c-14,2.5-27.7,6.1-40.6,12.5
	c-0.8,0.4-1.3,0.2-1.9-0.3c-16.4-12.2-35.1-19-54.8-23.5c-7.8-1.8-15.7-1.9-23.6-2.9c-14-1.6-27.9-1.9-41.7,1.7
	c-0.3,0.1-0.5,0.3-0.8-0.2c0-0.4,0.1-0.9,0.2-1.4c2.2-10.9,4.5-21.8,6.7-32.6c2-10,4.4-20,6-30.1c1.6-10.2,2.4-20.5,3.8-30.7
	c0.4-2.9-0.2-6.1,1.9-8.7c0.3-0.4,0.2-0.9-0.2-1.1c-0.7-0.5-0.4-1.2-0.3-1.8c0.3-2.7,0.7-5.3,1-8c1.9-17.3,4.9-34.5,4.3-51.9
	c-0.1-3.5-0.4-7-1.3-10.5c-1-4-4.5-5.3-8-2.8c-2.6,1.9-4.8,4.2-6.7,6.7c-4.2,5.6-8,11.5-11.1,17.8c-21.8,43.5-36.3,89-40,137.8
	c-1,13.5-0.6,27,2.6,40.2c0.3,1.1,0.1,2-0.6,3c-3.2,4.4-6.1,9-7.8,14.2c-2.6,8-5,16.1-7.6,24.1c-2.4,7.5-4.1,15.2-7.3,22.4
	c-4.3,9.6-9.8,18.8-13.3,29.5c-0.6-0.9-1-1.5-1.5-2.1c-4.8-5.5-10.3-10.1-16.4-14.1c-2.8-1.8-5.5-3.8-8.4-5.3
	c-4.7-2.4-6.8-6.1-6.7-11.3c0-2-0.7-3.7-2.8-4.5c-2-0.8-3.3,0.6-4.6,1.6c-1.3,1.1-2.6,2.3-3.8,3.5c-1.1,1.1-2.2,1.2-3.6,0.3
	c-2.3-1.5-4.8-2.7-7.4-3.5c-3.5-1.1-5-0.3-5.6,3.4c-0.2,1.2-0.6,1.4-1.6,1.4c-1.9,0.1-3.9,0.3-5.9,0.4c0.8-2.1,1.5-4.2,2.3-6.3
	c4.1-10.5,7.3-21.4,12.2-31.7c1.4-2.9,2.8-5.7,4.1-8.6c0.9-2,0.2-2.9-1.8-2.7c-2.6,0.2-5.2,0.4-7.8,0.8
	c-16.5,2.3-32.7,6.2-48.8,10.5C148.7,292.8,111.4,306,74.7,321c-17.5,7.2-34.9,14.9-51.3,24.3c-6.3,3.6-5.8,1.7-4.6,9.9
	c1.7,11.5,5.5,22.4,9.3,33.3c5.9,17.2,10.5,34.8,18.2,51.3c3.5,7.6,6.4,15.5,11.4,22.3c2.9,4,2.9,3.9,6.4,0.5
	c27.3-27,58.5-48.7,92.2-66.9c1-0.5,2.1-1,3.4-1.6c-0.1,0.9-0.2,1.4-0.2,1.9c-2.5,14.9-5.1,29.7-7.6,44.6c-3.3,19.3-6.5,38.7-9.9,58
	c-0.2,1-0.1,1.7,0.7,2.3c0.8,0.6,1.3-0.1,1.9-0.4c18-10.1,36-20.3,54-30.5c1.8-1,3.6-2,5.6-3.1c-0.1,0.9-0.1,1.4-0.2,1.9
	c-3,17.9-5.9,35.7-8.9,53.6c-0.6,3.8-1.3,7.7-1.9,11.5c-0.2,1-0.2,1.9,0.7,2.6c0.9,0.7,1.5-0.2,2.1-0.5c1.7-0.7,3.3-1.5,4.9-2.3
	c11.8-5.5,23.6-11.1,35.7-16.7c-0.6,3.3-1.4,6.4-1.8,9.5c-0.8,6.5-3.3,12.1-7.2,17.5c-7.3,10.1-13,21.1-16,33.3
	c-3.9,16-1.5,30.5,10.2,42.8c1.1,1.2,2.3,2.3,3.5,3.6c-6.3,3.7-12.4,7.5-18.7,11.1c-6.9,3.9-12.7,9.3-18.9,14.1
	c-1.5,1.2-2.7,2.8-3.7,4.5c-2.2,3.5-0.8,8.7,3,10.3c2.1,0.9,4.4,1.7,6.9,1.5c3.7-0.4,7.5-0.6,11.2-1.3c21.1-4.6,42-10.3,62.3-17.7
	c3.3-1.2,6.7-2.5,9.1-5.2c1-1.1,2-1.4,3.3-1.4c5.6-0.1,11.2,0.2,16.7-0.5c16.7-2.2,33.4-4.6,50.1-7.1c3.3-0.5,6.3-0.3,9.5,0.9
	c4.2,1.6,8.5,3.4,12.9,4.3c16.3,3.1,32.6,6.1,48.9,9.1c0.9,0.2,1.5,0.5,1.7,1.5c1,4.1,3.8,6.2,8,6.7c5.4,0.6,10.9,1.5,16.3,2.3
	c21.1,3.1,42.3,6.2,63.4,9.3c1.6,0.2,3.5,0.6,4.9-0.3c2.1-1.4,4.3-1.4,6.7-1.4c2.5,0,3.6-2.4,2.4-4.5c-0.2-0.3-0.6-0.5-0.3-0.9
	c1.5-2.2-0.1-3.5-1.3-4.8c-1.3-1.3-2.8-2.5-4.3-3.6c-8.9-6.3-18.7-10.8-28.6-15.2c-1.3-0.6-1.9-0.9-0.8-2.3c1.5-2,2.7-4.1,3.9-6.2
	c6.9-11.8,10-24.4,7.5-38c-1.8-10-6.4-18.8-12.8-26.6c-4.1-5.1-8.3-10.2-12.8-15c-5.2-5.5-7-12-7.2-19.3c-0.1-7.9,2.4-15.3,4.1-22.9
	c0.3-1.1,1.1-1.1,1.8-1.3c15.5-4.4,30.1-10.8,44.1-18.6c22-12.4,42.2-27.2,58.8-46.4c0.7-0.8,1.4-1,2.4-0.9c2,0.2,4,0.7,6,0
	c1.5-0.5,2.2-1.3,1.7-2.9c-0.5-1.5-1-2.9-1.8-4.1s-1-1.8,0.8-2.2c2.4-0.6,3.5-2.7,1.8-4.7c-1.5-1.8-1.2-3.1,0.6-4.4
	c0.3-0.2,0.7-0.6,1-0.9c1.7-1.4,1.9-2.9,0.4-4.6c-0.5-0.5-1-1.1-1.5-1.5c-1.5-1.1-1.6-1.9-0.5-3.7c2.4-3.9,1.7-5.7-2.8-6.5
	c-0.9-0.2-1.9-0.2-2.8-0.3c-1.4-0.2-3.2,0.1-4.2-0.6c-1.2-0.9-0.5-2.8-0.7-4.3c-0.3-1.4-0.9-2.4-2.2-2.9c-1.4-0.5-2.5,0.2-3.2,1.1
	c-1.6,2.1-3.8,2.4-6.2,2.4c-1.3,0-2.6-0.1-3.9-0.2c-13.2-0.5-26.4,0-39.3,3.7c-1.4,0.4-3.2,1.3-4.1,0.8c-1.2-0.7-0.3-2.7-0.4-4.2
	c-0.3-4.5-1.1-9-1.2-13.6c-0.1-12.3,2.2-24.2,5.8-36c4-12.9,5.3-26,3.8-39.4c-0.5-4.6-1.5-9.2-2.7-13.8c0.9,0,1.7,0,2.5,0
	c4.3,0.2,8.5,0.8,12.8,0.5c9.7-0.7,19.4-1.6,29.2-2.1c20.3-1.2,40.3-4.5,60.1-8.8c17-3.7,34-7.3,50.3-13.4
	c8.9-3.3,17.6-6.8,25.3-12.5C702.6,257.3,702.5,256.2,700,255z M235.9,514.3c-12.5,5.8-25.1,11.7-37.6,17.5c-0.5,0.2-1,0.6-1.9,0.4
	c2.7-16.1,5.4-32.1,8.1-48.2c0.9-5.8,1.9-11.5,2.8-17.3c0.1-0.6,0.3-1.3,0.3-1.9c0-1.6-1-2.3-2.4-1.6c-1.8,0.9-3.5,2-5.3,2.9
	c-17.7,10-35.5,19.9-53.2,29.9c-0.6,0.3-1.1,0.6-2,1c1.2-7,2.4-13.8,3.6-20.6c4.8-27.7,9.7-55.4,14.5-83.1c0.2-1,0.7-2.1-0.3-2.9
	c-1-0.9-2-0.1-3,0.4c-24.8,12.5-47.7,27.8-69.3,45.1c-10.1,8.1-19.8,16.5-29,26c-2.3-3-4.2-6.1-5.8-9.4c-3.3-5.2-5-11.2-7.2-16.8
	c-4.7-11.8-9.6-23.7-13.8-35.7c-5.6-15.7-10.2-31.7-13-48.2c-0.2-1.3,0.4-1.6,1.3-2.1c9.9-6,20.4-11,30.9-16
	c30.3-14.5,61.9-25.3,93.7-35.8c23.1-7.6,46.5-14.6,70.3-19.8c8-1.7,16.1-3.2,24.7-3.9c-0.5,1.3-0.9,2.3-1.3,3.4
	c-6.1,15.6-12.2,31.1-18.2,46.7c-0.5,1.2-0.9,2.2-2.4,2.5s-1.3,1.5-1.2,2.5c0.1,1.1,0.3,2.3,0.7,3.4c0.7,1.8-0.2,2.5-1.7,3.2
	c-1.9,0.8-4,1.3-5.5,2.8c-1.7,1.8-1.3,3.6,1,4.5c0.1,0.1,0.3,0,0.4,0.1c3.6,1.1,3.7,1.1,2.7,4.8c-4.2,15.9-8.4,31.8-12.6,47.7
	c-0.2,0.6-0.3,1.1-0.5,1.7l0,0l0,0c-4.3,12.4-6.3,25.3-8.2,38.3c-0.1,0.5-0.1,1-0.1,1.5c-0.1,0.8-0.7,1.9-0.1,2.2
	c0.8,0.5,1.9,0.1,2.8-0.3c8.4-3.9,16.9-7.8,25.1-12.1c4.9-2.5,9.8-5,14.6-7.5c1.2-0.6,1.6-0.3,2,0.8c2.4,5.9,4.8,11.7,7.3,17.5
	c0.3,0.8,0.3,1.5,0,2.3c-4.8,12-9.5,24-14.3,36c-0.3,0.7-0.6,1.3-1,1.9l0,0c-1.9,5.9-4.4,11.5-6.6,17.3c-0.2,0.5-0.4,0.9-0.7,1.7
	c2-0.7,3.9-1.2,5.6-1.8c9.4-3.2,18.8-6.5,28.2-9.7c0.6-0.2,1.4-1,2-0.2c0.4,0.5-0.2,1.2-0.5,1.8c-6.3,14.5-14.1,28.2-22.6,41.6
	c0.4-2,0.8-3.9,1.2-5.8c0.4-2,0.9-3.9,1.2-5.9c0.2-1.1,0.9-2.4-0.3-3.2S237,513.8,235.9,514.3z M218.5,347.1c0-0.1,0-0.5,0.2-0.8
	c0.3-0.4,0.8-0.6,1.3-0.5c0.6-0.1,1.3,0.2,1.5,1c1.5,5.2,1.1,10.9,2,16.3c1.1,6,2.3,12,3.6,18c2.6,12,6.3,23.7,9.5,35.5
	c0,0.2,0,0.3,0,0.4c-0.2,0.5-0.5,1.2-1.1,1.9c-1,1.1-2.1,1.4-2.5,1.5c-4.4,1.4-16.4,7.2-20.3,9.2c-1.2,0.6-1.1,0.8-4.8,2.6
	c-2.6,1.3-5.1,3.1-7.9,4.1c-0.9,0.7-2.4,0.4-2.3-1c0.6-7.2,3.1-13.9,4.8-20.9c1.9-7.6,4-15.2,6-22.7c3-11.3,4.3-14.7,6-22.4
	c1.5-6.7,2.2-10.1,2.3-11.7C217.1,354,218.6,350.6,218.5,347.1z M247.2,444.4c0.3-1.3,1.9-1.3,2.5-0.4c0.3,0.2,0.6,0.5,0.8,0.9
	c0.1,0.1,0.1,0.3,0.2,0.4c1.4,2.6,2.9,5.4,4.6,8.2c1.9,3.1,3.7,6,5.6,8.8c1.5,2.9,2.8,5.5,3.9,7.7c0.2,0.5,0.5,1.1,0.7,2
	c0.3,2.3-0.7,4.3-1.1,4.9c0,0,0,0.1-0.1,0.1c-1,1.7-1.8,3.1-3,4.2c-0.5,0.4-1.2,1-2.3,1.4c-3.6,1.6-6.7,3.1-9.1,3.9
	c-6.6,2.3-12.9,5.4-19.7,7.1c-1.1,0.3-1.8-0.6-1.8-1.5c0-0.3,0-0.6,0.2-0.9c1.9-3.5,3.2-7.4,4.9-11c1.8-3.9,3.2-8,4.6-12
	c2.7-7.4,6.3-14.6,8.5-22.2c0-0.3,0.1-0.5,0.2-0.8C247.1,444.9,247.2,444.6,247.2,444.4z M630.2,243.4c-0.3,0.7-0.5,1.3-0.9,2
	c-3.9,7.9-9.3,14.7-15.9,20.6c-6.1,5.5-12.6,10.6-19.5,15c0,0,0,0-0.1,0c-3.5,2.6-7.1,4.9-10.9,6.9c-2.9,1.5-6.3,1.2-9.5,1.7
	c-12.3,2.1-24.6,3-37,3.3c-5.5,0.1-11-0.5-16.4-0.7c-0.9,0-1.2-0.5-1.6-1.2c-0.9-2-1.9-4-2.8-6.1h0.1l0,0c-0.6-0.8-1.4-1.4-2.4-0.7
	c-0.7,0.5-0.4,1.3,0,2c10.1,19.2,9,39.3,3.7,59.4c-2.9,11-5.8,21.9-6.4,33.3c-0.1,2.4,0,4.8,0,7.3c-5.4-2.2-9,0.5-12.5,3.8
	c-6.4,6-11.5,12.9-14,21.5c-1.1,3.8-1.6,7.6-1.1,11.6c0.6,3.9,2,7.4,5.9,9.7c-13.3,9.2-26.4,17.9-40.7,25.2c1,0.4,1.7-0.1,2.4-0.4
	c20.1-8,37.9-19.4,53.3-34.6c4.6-4.5,8.3-9.8,9.8-16.3c0.2-1,0.9-1.1,1.7-1.4c14.5-4.5,29.4-5.8,44.5-4.5c4.1,0.3,7.8-0.2,10.5-3.8
	c0.2,0.5,0.4,0.6,0.3,0.8c-0.4,4.6,1.5,8.7,2.2,13.1c0.1,0.9,0.6,1.4,1.4,1.3c0.8,0,1.1-0.7,1.2-1.5c0.3-2-0.9-3.8-1.1-5.8
	c2.3-0.1,4.6-0.2,6.9,0.5c1.2,0.4,1.7,0.8,0.6,1.8c-0.1,0.1-0.3,0.3-0.4,0.5c-1.9,2.5-1.9,3.8,0.2,6c2.3,2.4,2.3,2.4,0,4.7
	c-2.5,2.6-2.7,3.5-0.4,6.2c1,1.2,0.4,1.4-0.6,1.6c-0.4,0.1-0.9,0.1-1.3,0.2c-2.3,0.3-2.8,1.3-1.8,3.4c0.8,1.8,1.8,3.6,2.7,5.5
	c-1.7,0.2-3.2-0.1-4.7-0.4c-1.8-0.3-3.1,0.3-4.3,1.7c-12.5,14.9-27.5,26.9-43.8,37.4c-0.2,0.1-0.4,0.2-0.6,0.3c0,0,0,0-0.1,0l0,0
	c-10.3,6.9-21.3,12.7-32.6,17.7c-7.2,3.2-14.5,6-22,8.3c-0.7,0.2-1.3,0.6-2.2,0.3c1-3.8,3-7,4.9-10.3c0.7-1.2,1.1-2.3-0.5-3
	c-1,0.2-1.7,0.8-2.3,1.7c-6.7,12.2-10.4,25.3-10.6,39.3c-0.1,7.8,2.1,14.7,7.7,20.5c3.9,4.1,7.6,8.5,11.2,12.9
	c16,19.5,19.6,42.8,6,64.9c-1.1,1.8-2.3,3.5-3.4,5.3c0,0,0,0-0.1,0l0,0c-2.7,4.2-6.3,7.7-9.4,11.8c0.7,0.4,1.7,0.5,1.8,1.9
	c2.2-2.6,4.3-5,6.2-7.4c0.7-0.9,1.3-1.2,2.5-0.7c9.7,3.7,18.6,8.8,27.5,14.1c0.2,0.1,0.3,0.3,0.6,0.6c-1.1,0.1-1.8-0.6-2.6-1
	c-4.8-2-9.5-4.1-14.3-6.2c-0.3-0.1-0.5-0.2-0.8-0.3c-0.9-0.2-1.7,0.1-2.1,0.8c-0.5,0.8,0.3,1.5,1,1.8c2,0.9,4.1,1.8,6.2,2.5
	c6.1,2.2,11.5,5.8,16.8,9.3c1,0.7,1,0.7,1.7,2.2c-2.2,0.1-4.2,0-6-1.6c-3-2.5-6.7-3.6-10.1-5.4c-2-1-4-1.9-6.1-2.9
	c-0.8-0.4-1.8-0.9-2.4,0.3c-0.5,1.2,0.2,1.9,1.3,2.3c3.6,1.5,7.2,3,10.7,4.7c2.1,1,4.3,2,6.1,3.9c-3.2,1.2-6.3,0.6-9.3,0.2
	c-23.6-3.5-47.2-7.1-70.8-10.6c-1.6-0.3-3.3-0.4-4.9-0.8c-2.2-0.5-3.8-1.9-4.7-4.3c2-0.3,3.9,0,5.8,0.1c4.5,0.3,9.1,0.9,13.6,0.3
	c0.5-0.1,1.1,0,1.5-0.2c0.7-0.4,1.4-1,1.2-1.9c-0.2-0.8-0.9-0.7-1.6-0.7c-5.3,0.3-10.5-0.2-15.8-0.4c-8.4-0.3-16.6-2.2-24.9-3.3
	c-14-1.8-27.3-6.8-41.2-9.9c2.3-0.8,8-1,11.5-0.6c5,0.6,10,1.1,15.1,1.6c1.3,0.1,3,0.2,3.1-1c0.1-1.6-1.7-1.5-3-1.6
	c-6.3-0.6-12.6-1.4-19-1.9c-3.1-0.2-6.2,0.2-9.3,0.2c-11.1,0.3-22.1,2.3-33.1,3.6c-13.6,1.7-27.2,3.8-40.8,5.2
	c-4.7,0.5-9.5-0.6-14.2-0.8c-6.5-0.2-12.7-1.3-18.8-3.6c-0.5-0.2-1-0.3-1.5-0.2c-0.7,0.1-1.5,0.2-1.6,1.1c-0.1,0.9,0.6,1.2,1.3,1.5
	c5.7,1.7,11.2,3.7,17.2,3.9c1.9,0,3.8,0.4,6.1,0.6c-1.8,1.8-3.9,2.6-5.9,3.3c-13.5,4.5-26.8,9.4-40.5,13.3
	c-10.7,3-21.7,5.3-32.8,6.6c-0.3,0-0.7,0-1.7,0c2.4-2,4.1-3.9,6.4-5.2c6-3.7,11.9-7.7,18.8-9.5c0.8-0.2,1.8-0.8,1.5-1.8
	c-0.3-1.1-1.3-1.2-2.3-0.8c-9.9,3.2-19,8-26.5,15.4c-1,1-2,1.1-2.8,0.5c-1.2-0.8-0.1-1.7,0.4-2.4c1-1.6,2.4-2.9,3.9-4
	c5.3-4.1,10.7-7.9,16.7-10.8c0.6-0.3,1.8-0.6,1.2-1.6c-0.5-0.8-1.3-1.3-2.6-0.7c-6.3,3.2-12,7.1-17.6,11.4c-1.6,1.3-3,2.9-4.4,5
	c-0.3-1.5,0.2-2.2,0.6-3c1.2-1.8,2.7-3.4,4.4-4.8c6.6-5.4,13.3-10.6,20.8-14.8c5-2.8,9.9-5.8,14.8-8.9c1.2-0.7,2-0.7,3.1,0.1
	c1.4,1.1,3.1,1.9,4.5,3c1.6,1.3,1.4-0.6,2-1c1.2-0.8-0.1-1-0.5-1.3c-2.9-2.1-6-4-8.7-6.4c-0.8-0.7-1.5-1.5-2.3-2.3l0,0
	c-10.5-10.5-13.9-23-11-37.4c2.6-12.9,8.7-24.4,16.1-35.1c12-17.6,22.8-35.8,31.8-55.1c0.1-0.3,0.3-0.5,0.5-0.7c0,0,0,0,0-0.1l0,0
	c2.3-5.5,4.4-11.1,6.1-16.9c1.2,0.5,1.6,1.5,2.3,2.3c0.7,0.7,1.4,1.2,2.2,0.5c0.9-0.7,0.5-1.5-0.1-2.3c-2.6-3.7-5.3-7.4-7.9-11.1
	c-9.7-13.8-16.7-29-22.7-44.8c-2.7-7.1-5.2-14.2-7.3-21.4l0,0c-2.6-7.4-4.3-15.1-6-22.8c-2.2-9.6-3.9-19.4-4.8-29.2
	c-0.2-1.8-0.9-2.5-2.6-2.6c-2.1-0.1-4.1-0.6-6.3-1.5c2.5-1.1,4.7-2.1,7-3c1.6-0.6,2.3-1.5,1.3-3.1c0-0.1-0.1-0.1-0.1-0.2
	c-0.4-1.7-1.8-3.8-0.8-5.1c0.9-1.3,3,0.2,4.7,0.3c0.9,0.1,1.9,0.4,2.6-0.5c0.7-1,0.4-1.9-0.2-2.8c-1.8-3.3-1.7-3.3,2-3.5
	c1.2,0,2.3-0.1,3.5-0.1c2.5,0,2.9-0.3,2.6-2.9c-0.2-2,0.4-2,2-1.5c2.2,0.8,4.3,2,6.7,3.1c-3.3,2.1-5.6,4.9-8.2,7.5
	c-0.7,0.7-1.3,1.5-0.3,2.4c0.9,0.8,1.8,0.5,2.4-0.3c4.9-5.9,12.3-8.9,17.5-14.4c1.1-1.2,1.7-0.6,2,0.7c0.3,1.4,0.6,2.8,0.6,4.3
	c0,4.2,2.4,6.8,5.5,8.9c6.5,4.5,13,8.8,19.5,13.3c3.4,2.3,6.3,5.2,8.9,8.5c0.5,0.6,0.9,1.2,0.8,2.1c-1.1,13.4,3.5,25.4,8.9,37.2
	c6.2,13.6,14,26.3,22.2,38.9c0.6,0.9,1.1,2.1,2.5,1.3c1.4-0.9,0.6-2,0-3c-7.3-11-14.2-22.2-20-34.1c-0.3-0.5-0.5-1.1-0.8-1.8
	c3,0.6,5.8,1.5,8.8,1.4c8.7-0.1,15.2-4,19.3-11.5c5-9.2,5.4-18.9,1.3-28.6c-5.5-12.9-20.8-18.1-32.3-11.1c-1.7,1-3,2.4-4.8,4.3
	c1.2-3.6,2.2-6.6,3.7-9.4c5.1-9.3,9.8-18.8,12.5-29.1c3-11.4,6.9-22.5,10.4-33.7c1.4-4.4,3.9-8.4,6.8-12.4c0.6,1.9,1.1,3.5,1.6,5.1
	c0.4,1.2,1,2,2.4,1.3l0,0l0,0c0.7-0.8,0.5-1.7,0.2-2.6c-6.1-17.2-6.3-34.9-5.1-52.8c0.9-13.1,3-25.9,5.8-38.7
	c0.1-0.4,0.2-0.8,0.4-1.2l0,0c0.3-2.7,1.1-5.4,1.7-8c0.1-0.5,0.4-0.9,0.7-1.3c7.9-8.2,15.2-16.9,24.7-23.3
	c5.3-3.6,10.5-7.1,16.8-8.6c1.6-0.4,3.3-0.6,4.9-0.6c1.1,0,1.5,0.3,1.3,1.5c-3.4,20.6-6.8,41.3-10,62c-2.1,13.4-4.7,26.7-8.5,39.7
	c-1,3.3-2.2,6.6-3.3,9.8c-0.2,0.5-0.4,0.9-0.5,1.4c-0.2,0.9-0.3,2,0.6,2.3c0.8,0.4,1.4-0.6,1.8-1.2c1.5-2.5,2.4-5.2,3.1-8
	c0.3-1.2,0.9-1.6,2-1.9c13.7-3.8,27.5-3.6,41.4-1.9c7.7,0.9,15.5,1.1,23.2,2.8c18.9,4.3,36.9,11,53,22c3.8,2.6,7.1,5.9,10.7,8.8
	c0.5,0.4,1,0.9,1.5,1.2c0.8,0.4,1.6,0.4,2.1-0.3c0.6-0.8-0.1-1.3-0.7-1.8c-2.4-2-4.7-4-7.3-6.1c2.7-1.7,5.5-2.7,8.3-3.9
	c11.1-4.7,22.9-6.9,34.7-9.1c7.9-1.5,15.7-3.2,23.6-4.5c4.3-0.7,8.8-0.8,13.2-1.1c11.4-0.8,22.8-1.6,34.1-2.1c6-0.3,12,0.2,18,0.3
	C630.2,242.1,630.5,242.5,630.2,243.4z M511.5,402.9c0.1,3.5-1.3,6.6-2.9,9.6c-3.9,7.1-9.9,12.3-16.1,17.4c-0.8,0.6-1.5,0.4-2.2,0.1
	c-2.7-1.3-3.6-3.8-4.1-6.5c-0.3-1.5-0.4-3.1-0.3-4.8c1.3-11.6,6.8-20.9,15.8-28.2c1.6-1.3,3.4-2.2,5.5-2.2s3.5,1.1,3.6,3.2
	C511.1,395.3,511.4,399.1,511.5,402.9z M306.8,344.8c5.9-3.7,12.2-3.2,18,0.4c8.2,5,11.2,12.8,11.4,21.9c-0.1,6.9-1.7,13.2-6.4,18.3
	c-6.7,7.3-15.8,7.2-23.9,3.5c-0.5-0.2-0.8-0.5-1.1-1c-3.7-8.3-7.2-16.8-7.7-26C296.8,354.5,300.7,348.7,306.8,344.8z M480.9,335.4
	c-9.3,0.1-16.6,7.6-16.6,16.9s7.7,17.6,16.3,17.4c12-0.2,17.1-8.8,17.2-17C497.7,343.5,489.8,335.3,480.9,335.4z M480.1,352.5
	c-4.3,0.1-7.4-2.8-7.4-6.7c0-3.8,3.7-7.1,7.9-7c3.9,0,7,3,7,6.8C487.5,349.1,484,352.4,480.1,352.5z"/>
</svg>
